<svg width="20" height="20" viewBox="0 0 20 20" fill="none" xmlns="http://www.w3.org/2000/svg">
<path fill-rule="evenodd" clip-rule="evenodd" d="M5.41151 4.38022C5.12676 4.09547 4.66507 4.09547 4.38032 4.38022C4.09556 4.66498 4.09556 5.12666 4.38032 5.41142L8.96888 9.99999L4.38032 14.5886C4.09556 14.8733 4.09556 15.335 4.38032 15.6198C4.66507 15.9045 5.12676 15.9045 5.41151 15.6198L10.0001 11.0312L14.5886 15.6198C14.8734 15.9045 15.3351 15.9045 15.6198 15.6198C15.9046 15.335 15.9046 14.8733 15.6198 14.5886L11.0313 9.99999L15.6198 5.41142C15.9046 5.12666 15.9046 4.66498 15.6198 4.38022C15.3351 4.09547 14.8734 4.09547 14.5886 4.38022L10.0001 8.96879L5.41151 4.38022Z" fill="white"/>
</svg>
